                                                                        S      1
,,,12Hshort_domain,22HAutodesk Inventor 2018,7Hunknown,32,38,7,99,15,,  G      1
1.,6,1HM,1,0.08,15H20200831.151719,1D-5,10000.,5HManoj,,11,0,15H20200831G      2
.094040;                                                                G      3
     186       1                                                00000000D      1
     186            -123       1       0                               0D      2
     514       2                                                00010000D      3
     514                       1       1                               0D      4
     510       3                                                00010000D      5
     510            -123       1       1                               0D      6
     510       4                                                00010000D      7
     510            -123       1       1                               0D      8
     510       5                                                00010000D      9
     510            -123       1       1                               0D     10
     510       6                                                00010000D     11
     510            -123       1       1                               0D     12
     510       7                                                00010000D     13
     510            -123       1       1                               0D     14
     510       8                                                00010000D     15
     510            -123       1       1                               0D     16
     510       9                                                00010000D     17
     510            -123       1       1                               0D     18
     510      10                                                00010000D     19
     510            -123       1       1                               0D     20
     510      11                                                00010000D     21
     510            -123       1       1                               0D     22
     510      12                                                00010000D     23
     510            -123       1       1                               0D     24
     508      13                                                00010000D     25
     508                       1       1                               0D     26
     508      14                                                00010000D     27
     508                       1       1                               0D     28
     508      15                                                00010000D     29
     508                       1       1                               0D     30
     508      16                                                00010000D     31
     508                       1       1                               0D     32
     508      17                                                00010000D     33
     508                       1       1                               0D     34
     508      18                                                00010000D     35
     508                       1       1                               0D     36
     508      19                                                00010000D     37
     508                       1       1                               0D     38
     508      20                                                00010000D     39
     508                       1       1                               0D     40
     508      21                                                00010000D     41
     508                       1       1                               0D     42
     508      22                                                00010000D     43
     508                       1       1                               0D     44
     508      23                                                00010000D     45
     508                       1       1                               0D     46
     508      24                                                00010000D     47
     508                       1       1                               0D     48
     126      25                                                00010000D     49
     126       0               2       0                               0D     50
     126      27                                                00010000D     51
     126       0               2       0                               0D     52
     126      29                                                00010000D     53
     126       0               2       0                               0D     54
     126      31                                                00010000D     55
     126       0               2       0                               0D     56
     126      33                                                00010000D     57
     126       0               2       0                               0D     58
     126      35                                                00010000D     59
     126       0               2       0                               0D     60
     126      37                                                00010000D     61
     126       0               2       0                               0D     62
     126      39                                                00010000D     63
     126       0               2       0                               0D     64
     126      41                                                00010000D     65
     126       0               2       0                               0D     66
     126      43                                                00010000D     67
     126       0               2       0                               0D     68
     126      45                                                00010000D     69
     126       0               2       0                               0D     70
     126      47                                                00010000D     71
     126       0               2       0                               0D     72
     126      49                                                00010000D     73
     126       0               2       0                               0D     74
     126      51                                                00010000D     75
     126       0               2       0                               0D     76
     126      53                                                00010000D     77
     126       0               2       0                               0D     78
     126      55                                                00010000D     79
     126       0               2       0                               0D     80
     126      57                                                00010000D     81
     126       0               2       0                               0D     82
     126      59                                                00010000D     83
     126       0               2       0                               0D     84
     126      61                                                00010000D     85
     126       0               2       0                               0D     86
     126      63                                                00010000D     87
     126       0               2       0                               0D     88
     126      65                                                00010000D     89
     126       0               2       0                               0D     90
     126      67                                                00010000D     91
     126       0               2       0                               0D     92
     126      69                                                00010000D     93
     126       0               2       0                               0D     94
     126      71                                                00010000D     95
     126       0               2       0                               0D     96
     128      73                                                00010000D     97
     128       0    -123       4       0                               0D     98
     128      77                                                00010000D     99
     128       0    -123       4       0                               0D    100
     128      81                                                00010000D    101
     128       0    -123       4       0                               0D    102
     128      85                                                00010000D    103
     128       0    -123       4       0                               0D    104
     128      89                                                00010000D    105
     128       0    -123       5       0                               0D    106
     128      94                                                00010000D    107
     128       0    -123       4       0                               0D    108
     128      98                                                00010000D    109
     128       0    -123       3       0                               0D    110
     128     101                                                00010000D    111
     128       0    -123       3       0                               0D    112
     128     104                                                00010000D    113
     128       0    -123       5       0                               0D    114
     128     109                                                00010000D    115
     128       0    -123       5       0                               0D    116
     502     114                                                00010000D    117
     502                       5       1                               0D    118
     504     119                                                00010001D    119
     504                       7       1                               0D    120
     406     126                                                00000000D    121
     406                       1      15                               0D    122
     314     127                                                00000200D    123
     314                       1       0                               0D    124
186,3,1,0,0,1,121;                                                     1P      1
514,10,5,1,7,1,9,1,11,1,13,1,15,1,17,1,19,1,21,1,23,1;                 3P      2
510,97,1,1,25;                                                         5P      3
510,99,1,1,27;                                                         7P      4
510,101,1,1,29;                                                        9P      5
510,103,1,1,31;                                                       11P      6
510,105,1,1,33;                                                       13P      7
510,107,1,1,35;                                                       15P      8
510,109,1,1,37;                                                       17P      9
510,111,1,1,39;                                                       19P     10
510,113,2,1,41,43;                                                    21P     11
510,115,2,1,45,47;                                                    23P     12
508,4,0,119,1,0,0,0,119,2,1,0,0,119,3,0,0,0,119,4,0,0;                25P     13
508,4,0,119,5,0,0,0,119,6,1,0,0,119,7,0,0,0,119,2,0,0;                27P     14
508,4,0,119,8,0,0,0,119,9,1,0,0,119,10,0,0,0,119,6,0,0;               29P     15
508,4,0,119,11,0,0,0,119,4,1,0,0,119,12,0,0,0,119,9,0,0;              31P     16
508,4,0,119,13,1,0,0,119,14,1,0,0,119,15,0,0,0,119,16,0,0;            33P     17
508,4,0,119,17,1,0,0,119,16,1,0,0,119,18,0,0,0,119,19,0,0;            35P     18
508,4,0,119,20,1,0,0,119,19,1,0,0,119,21,0,0,0,119,22,0,0;            37P     19
508,4,0,119,23,1,0,0,119,22,1,0,0,119,24,0,0,0,119,14,0,0;            39P     20
508,4,0,119,24,1,0,0,119,21,1,0,0,119,18,1,0,0,119,15,1,0;            41P     21
508,4,0,119,3,1,0,0,119,7,1,0,0,119,10,1,0,0,119,12,1,0;              43P     22
508,4,0,119,23,0,0,0,119,13,0,0,0,119,17,0,0,0,119,20,0,0;            45P     23
508,4,0,119,1,1,0,0,119,11,1,0,0,119,8,1,0,0,119,5,1,0;               47P     24
126,1,1,0,0,1,0,-14.95,-14.95,-13.75,-13.75,1.,1.,0.65,0.799,0.,      49P     25
0.65,0.787,0.,-14.95,-13.75,0.,0.,0.;                                 49P     26
126,1,1,0,0,1,0,0.,0.,0.1,0.1,1.,1.,0.65,0.799,0.,0.65,0.799,         51P     27
0.001,0.,0.1,0.,0.,0.;                                                51P     28
126,1,1,0,0,1,0,13.75,13.75,14.95,14.95,1.,1.,0.65,0.787,0.001,       53P     29
0.65,0.799,0.001,13.75,14.95,0.,0.,0.;                                53P     30
126,1,1,0,0,1,0,0.,0.,0.1,0.1,1.,1.,0.65,0.787,0.,0.65,0.787,         55P     31
0.001,0.,0.1,0.,0.,0.;                                                55P     32
126,1,1,0,0,1,0,42.5,42.5,142.5,142.5,1.,1.,1.65,0.799,0.,0.65,       57P     33
0.799,0.,42.5,142.5,0.,0.,0.;                                         57P     34
126,1,1,0,0,1,0,0.,0.,0.1,0.1,1.,1.,1.65,0.799,0.,1.65,0.799,         59P     35
0.001,0.,0.1,0.,0.,0.;                                                59P     36
126,1,1,0,0,1,0,-142.5,-142.5,-42.5,-42.5,1.,1.,0.65,0.799,           61P     37
0.001,1.65,0.799,0.001,-142.5,-42.5,0.,0.,0.;                         61P     38
126,1,1,0,0,1,0,14.35,14.35,15.55,15.55,1.,1.,1.65,0.787,0.,          63P     39
1.65,0.799,0.,14.35,15.55,0.,0.,0.;                                   63P     40
126,1,1,0,0,1,0,0.,0.,0.1,0.1,1.,1.,1.65,0.787,0.,1.65,0.787,         65P     41
0.001,0.,0.1,0.,0.,0.;                                                65P     42
126,1,1,0,0,1,0,-15.55,-15.55,-14.35,-14.35,1.,1.,1.65,0.799,         67P     43
0.001,1.65,0.787,0.001,-15.55,-14.35,0.,0.,0.;                        67P     44
126,1,1,0,0,1,0,-92.5,-92.5,7.5,7.5,1.,1.,0.65,0.787,0.,1.65,         69P     45
0.787,0.,-92.5,7.5,0.,0.,0.;                                          69P     46
126,1,1,0,0,1,0,-7.5,-7.5,92.5,92.5,1.,1.,1.65,0.787,0.001,0.65,      71P     47
0.787,0.001,-7.5,92.5,0.,0.,0.;                                       71P     48
126,1,1,0,0,1,0,0.,0.,100.,100.,1.,1.,-3.06161699786838D-16,1.,       73P     49
0.,0.,0.,0.,0.,100.,0.,0.,0.;                                         73P     50
126,1,1,0,0,1,0,0.,0.,0.1,0.1,1.,1.,0.,0.,0.,0.,0.,0.001,0.,0.1,      75P     51
0.,0.,0.;                                                             75P     52
126,1,1,0,0,1,0,0.,0.,100.,100.,1.,1.,-3.06161699786838D-16,1.,       77P     53
0.001,0.,0.,0.001,0.,100.,0.,0.,0.;                                   77P     54
126,1,1,0,0,1,0,0.,0.,0.1,0.1,1.,1.,-3.06161699786838D-16,1.,0.,      79P     55
-3.06161699786838D-16,1.,0.001,0.,0.1,0.,0.,0.;                       79P     56
126,1,1,0,0,1,0,0.,0.,500.,500.,1.,1.,5.,1.,0.,                       81P     57
-5.6843418860808D-16,1.,0.,0.,500.,0.,0.,0.;                          81P     58
126,1,1,0,0,1,0,0.,0.,500.,500.,1.,1.,5.,1.,0.001,                    83P     59
-5.6843418860808D-16,1.,0.001,0.,500.,0.,0.,0.;                       83P     60
126,1,1,0,0,1,0,0.,0.,0.1,0.1,1.,1.,5.,1.,0.,5.,1.,0.001,0.,0.1,      85P     61
0.,0.,0.;                                                             85P     62
126,1,1,0,0,1,0,0.,0.,100.,100.,1.,1.,5.,0.,0.,5.,1.,0.,0.,100.,      87P     63
0.,0.,0.;                                                             87P     64
126,1,1,0,0,1,0,0.,0.,100.,100.,1.,1.,5.,0.,0.001,5.,1.,0.001,        89P     65
0.,100.,0.,0.,0.;                                                     89P     66
126,1,1,0,0,1,0,0.,0.,0.1,0.1,1.,1.,5.,0.,0.,5.,0.,0.001,0.,0.1,      91P     67
0.,0.,0.;                                                             91P     68
126,1,1,0,0,1,0,0.,0.,500.,500.,1.,1.,0.,0.,0.,5.,0.,0.,0.,500.,      93P     69
0.,0.,0.;                                                             93P     70
126,1,1,0,0,1,0,0.,0.,500.,500.,1.,1.,0.,0.,0.001,5.,0.,0.001,        95P     71
0.,500.,0.,0.,0.;                                                     95P     72
128,1,1,1,1,0,0,1,0,0,-0.001,-0.001,1.201,1.201,-0.001,-0.001,        97P     73
0.101,0.101,1.,1.,1.,1.,0.65,0.78699,-1D-5,0.65,0.79901,-1D-5,        97P     74
0.65,0.78699,0.00101,0.65,0.79901,0.00101,-0.001,1.201,-0.001,        97P     75
0.101;                                                                97P     76
128,1,1,1,1,0,0,1,0,0,-0.001,-0.001,100.001,100.001,-0.001,           99P     77
-0.001,0.101,0.101,1.,1.,1.,1.,0.64999,0.799,-1D-5,1.65001,           99P     78
0.799,-1D-5,0.64999,0.799,0.00101,1.65001,0.799,0.00101,-0.001,       99P     79
100.001,-0.001,0.101;                                                 99P     80
128,1,1,1,1,0,0,1,0,0,-0.001,-0.001,1.201,1.201,-0.001,-0.001,       101P     81
0.101,0.101,1.,1.,1.,1.,1.65,0.79901,-1D-5,1.65,0.78699,-1D-5,       101P     82
1.65,0.79901,0.00101,1.65,0.78699,0.00101,-0.001,1.201,-0.001,       101P     83
0.101;                                                               101P     84
128,1,1,1,1,0,0,1,0,0,-0.001,-0.001,100.001,100.001,-0.001,          103P     85
-0.001,0.101,0.101,1.,1.,1.,1.,1.65001,0.787,-1D-5,0.64999,          103P     86
0.787,-1D-5,1.65001,0.787,0.00101,0.64999,0.787,0.00101,-0.001,      103P     87
100.001,-0.001,0.101;                                                103P     88
128,1,1,1,1,0,0,1,0,0,-0.001,-0.001,100.001,100.001,-0.001,          105P     89
-0.001,0.101,0.101,1.,1.,1.,1.,-3.06164761403836D-16,1.00001,        105P     90
-1D-5,3.06161699788668D-21,-1.00000000000477D-5,-1D-5,               105P     91
-3.06164761403836D-16,1.00001,0.00101,3.06161699788668D-21,          105P     92
-1.00000000000477D-5,0.00101,-0.001,100.001,-0.001,0.101;            105P     93
128,1,1,1,1,0,0,1,0,0,-0.001,-0.001,500.001,500.001,-0.001,          107P     94
-0.001,0.101,0.101,1.,1.,1.,1.,5.00001,1.,-1D-5,                     107P     95
-1.0000000000332D-5,1.,-1D-5,5.00001,1.,0.00101,                     107P     96
-1.0000000000332D-5,1.,0.00101,-0.001,500.001,-0.001,0.101;          107P     97
128,1,1,1,1,0,0,1,0,0,-0.001,-0.001,100.001,100.001,-0.001,          109P     98
-0.001,0.101,0.101,1.,1.,1.,1.,5.,-1D-5,-1D-5,5.,1.00001,-1D-5,      109P     99
5.,-1D-5,0.00101,5.,1.00001,0.00101,-0.001,100.001,-0.001,0.101;     109P    100
128,1,1,1,1,0,0,1,0,0,-0.001,-0.001,500.001,500.001,-0.001,          111P    101
-0.001,0.101,0.101,1.,1.,1.,1.,-1D-5,0.,-1D-5,5.00001,0.,-1D-5,      111P    102
-1D-5,0.,0.00101,5.00001,0.,0.00101,-0.001,500.001,-0.001,0.101;     111P    103
128,1,1,1,1,0,0,1,0,0,-250.001,-250.001,250.001,250.001,-50.001,     113P    104
-50.001,50.001,50.001,1.,1.,1.,1.,-1.00000000006162D-5,              113P    105
-9.99999999997669D-6,0.001,5.00001,-9.99999999997669D-6,0.001,       113P    106
-1.00000000006162D-5,1.00001,0.001,5.00001,1.00001,0.001,            113P    107
-250.001,250.001,-50.001,50.001;                                     113P    108
128,1,1,1,1,0,0,1,0,0,-250.001,-250.001,250.001,250.001,-50.001,     115P    109
-50.001,50.001,50.001,1.,1.,1.,1.,5.00001,-9.99999999997669D-6,      115P    110
0.,-1.00000000006162D-5,-9.99999999997669D-6,0.,5.00001,1.00001,     115P    111
0.,-1.00000000006162D-5,1.00001,0.,-250.001,250.001,-50.001,         115P    112
50.001;                                                              115P    113
502,16,0.65,0.799,0.,0.65,0.787,0.,0.65,0.799,0.001,0.65,0.787,      117P    114
0.001,1.65,0.799,0.,1.65,0.799,0.001,1.65,0.787,0.,1.65,0.787,       117P    115
0.001,-3.06161699786838D-16,1.,0.,0.,0.,0.,0.,0.,0.001,              117P    116
-3.06161699786838D-16,1.,0.001,5.,1.,0.,5.,1.,0.001,5.,0.,0.,5.,     117P    117
0.,0.001;                                                            117P    118
504,24,49,117,1,117,2,51,117,1,117,3,53,117,4,117,3,55,117,2,        119P    119
117,4,57,117,5,117,1,59,117,5,117,6,61,117,3,117,6,63,117,7,117,     119P    120
5,65,117,7,117,8,67,117,6,117,8,69,117,2,117,7,71,117,8,117,4,       119P    121
73,117,9,117,10,75,117,10,117,11,77,117,12,117,11,79,117,9,117,      119P    122
12,81,117,13,117,9,83,117,14,117,12,85,117,13,117,14,87,117,15,      119P    123
117,13,89,117,16,117,14,91,117,15,117,16,93,117,10,117,15,95,        119P    124
117,11,117,16;                                                       119P    125
406,1,6HSolid1;                                                      121P    126
314,74.9019607843137,74.9019607843137,74.9019607843137,;             123P    127
S      1G      3D    124P    127                                        T      1
